<svg width="33" height="33" viewBox="0 0 33 33" fill="none" xmlns="http://www.w3.org/2000/svg">
<circle cx="16.5" cy="16.5" r="16.5" fill="#1EBFC1"/>
<path d="M5.76543 13.75V12.71H7.84543V20H6.69543V13.75H5.76543ZM9.41152 16.26C9.41152 15.1067 9.60486 14.2067 9.99152 13.56C10.3849 12.9067 11.0582 12.58 12.0115 12.58C12.9649 12.58 13.6349 12.9067 14.0215 13.56C14.4149 14.2067 14.6115 15.1067 14.6115 16.26C14.6115 17.4267 14.4149 18.34 14.0215 19C13.6349 19.6533 12.9649 19.98 12.0115 19.98C11.0582 19.98 10.3849 19.6533 9.99152 19C9.60486 18.34 9.41152 17.4267 9.41152 16.26ZM13.4915 16.26C13.4915 15.72 13.4549 15.2633 13.3815 14.89C13.3149 14.5167 13.1749 14.2133 12.9615 13.98C12.7482 13.74 12.4315 13.62 12.0115 13.62C11.5915 13.62 11.2749 13.74 11.0615 13.98C10.8482 14.2133 10.7049 14.5167 10.6315 14.89C10.5649 15.2633 10.5315 15.72 10.5315 16.26C10.5315 16.82 10.5649 17.29 10.6315 17.67C10.6982 18.05 10.8382 18.3567 11.0515 18.59C11.2715 18.8233 11.5915 18.94 12.0115 18.94C12.4315 18.94 12.7482 18.8233 12.9615 18.59C13.1815 18.3567 13.3249 18.05 13.3915 17.67C13.4582 17.29 13.4915 16.82 13.4915 16.26ZM19.7978 20L17.1078 16.89V20H15.9678V13.05H17.1078V16.22L19.8078 13.05H21.2378L18.2178 16.53L21.2878 20H19.7978ZM27.6659 16.87H25.6459V18.94H24.5859V16.87H22.5659V15.91H24.5859V13.84H25.6459V15.91H27.6659V16.87Z" fill="white"/>
</svg>
