<svg width="76" height="18" viewBox="0 0 76 18" fill="none" xmlns="http://www.w3.org/2000/svg">
<path d="M60.754 0.196777C61.6744 0.196777 62.0801 0.649622 61.9708 1.55531L61.807 2.81852C61.6978 3.61298 61.2298 4.01021 60.403 4.01021H58.718C57.8132 4.01021 57.4153 3.55737 57.5246 2.65168L57.6884 1.38848C57.7664 0.59401 58.2266 0.196777 59.0691 0.196777H60.754Z" fill="#192122"/>
<path d="M61.3624 5.53559L59.7477 17.3811H55.512L57.1267 5.53559H61.3624Z" fill="#192122"/>
<path fill-rule="evenodd" clip-rule="evenodd" d="M11.9617 1.15014C11.1193 0.880018 10.0038 0.74496 8.61532 0.74496C7.71046 0.74496 6.89921 0.752903 6.18156 0.768792C5.47951 0.768792 4.81647 0.784682 4.19243 0.81646C3.58399 0.832351 2.95995 0.872073 2.32031 0.93563L0.050354 17.3811C0.783602 17.4287 1.50125 17.4685 2.2033 17.5002C2.90534 17.532 3.67759 17.5479 4.52005 17.5479C5.36251 17.5638 6.36097 17.5717 7.51545 17.5717C8.82593 17.5717 9.9024 17.4605 10.7449 17.2381C11.5873 16.9997 12.2348 16.5866 12.6872 15.9987C13.1396 15.3949 13.4438 14.5448 13.5999 13.4485C13.7871 12.1138 13.6623 11.0571 13.2254 10.2786C12.7886 9.48409 11.9461 9.03124 10.6981 8.92001L10.7215 8.77701C11.8135 8.68167 12.5936 8.348 13.0616 7.77598C13.5452 7.20397 13.8651 6.34594 14.0211 5.20191C14.1615 4.04199 14.0679 3.14425 13.7403 2.50867C13.4126 1.85721 12.8198 1.40437 11.9617 1.15014ZM8.45151 3.91488C9.05995 3.91488 9.45778 4.0261 9.64499 4.24855C9.8478 4.45511 9.91021 4.86824 9.8322 5.48792C9.70739 6.29828 9.49678 6.83057 9.20036 7.0848C8.91954 7.33903 8.41251 7.46614 7.67926 7.46614H5.71353L6.20496 3.91488H8.45151ZM5.3157 10.2547H7.58565C8.3501 10.2547 8.84154 10.3818 9.05995 10.6361C9.27837 10.8903 9.33297 11.4226 9.22376 12.2329C9.13016 12.8208 8.99755 13.2737 8.82593 13.5915C8.66993 13.9093 8.42031 14.1238 8.07709 14.235C7.73386 14.3462 7.27363 14.4018 6.69639 14.4018H4.75407L5.3157 10.2547Z" fill="#192122"/>
<path fill-rule="evenodd" clip-rule="evenodd" d="M25.8725 5.70243C25.0457 5.36875 23.8678 5.20191 22.3389 5.20191C20.966 5.20191 19.7959 5.36875 18.8286 5.70243C17.8614 6.02021 17.0969 6.62401 16.5353 7.51381C15.9736 8.38772 15.5992 9.65887 15.412 11.3272C15.2716 12.7096 15.3496 13.8695 15.646 14.807C15.9424 15.7445 16.5431 16.4595 17.4479 16.9521C18.3528 17.4287 19.6399 17.6671 21.3092 17.6671C22.1829 17.6671 23.0955 17.5956 24.0472 17.4526C25.0144 17.3096 25.8881 17.0633 26.6682 16.7137L26.3639 14.0443C25.9115 14.092 25.3811 14.1397 24.7726 14.1873C24.1798 14.2191 23.6026 14.2509 23.0409 14.2827C22.4949 14.2985 22.0502 14.3065 21.707 14.3065C21.0362 14.3065 20.5448 14.2191 20.2327 14.0443C19.9207 13.8536 19.7569 13.4246 19.7413 12.7573L22.9473 12.4951C24.4762 12.3839 25.6229 12.1297 26.3873 11.7324C27.1674 11.3193 27.6354 10.5725 27.7914 9.49203C27.9318 8.55456 27.8538 7.76804 27.5574 7.13247C27.2766 6.49689 26.715 6.02021 25.8725 5.70243ZM21.1454 8.30033C21.4418 8.15733 21.8318 8.08582 22.3155 8.08582C22.9083 8.06993 23.3061 8.12555 23.5089 8.25266C23.7118 8.37978 23.782 8.64989 23.7196 9.06302C23.6572 9.57148 23.4855 9.89721 23.2047 10.0402C22.9239 10.1832 22.5105 10.2786 21.9644 10.3262L19.9987 10.5407C20.1235 9.87337 20.2717 9.36491 20.4433 9.01535C20.6306 8.66579 20.8646 8.42745 21.1454 8.30033Z" fill="#192122"/>
<path d="M34.7446 5.20191C35.3375 5.2178 35.9849 5.24958 36.6869 5.29725C37.389 5.32903 38.0676 5.38464 38.7229 5.46409C39.3781 5.54353 39.932 5.63093 40.3844 5.72626L40.0334 8.27649H37.74C36.9912 8.26061 36.2579 8.25266 35.5403 8.25266C34.6822 8.25266 34.105 8.27649 33.8085 8.32416C33.5121 8.35594 33.3483 8.48306 33.3171 8.70551C33.2859 8.91207 33.3561 9.07096 33.5277 9.18219C33.7149 9.29341 34.0426 9.42847 34.5106 9.58737L37.2252 10.4454C38.1612 10.7314 38.8477 11.1684 39.2845 11.7563C39.7369 12.3442 39.9086 13.1227 39.7994 14.092C39.6745 15.1089 39.3703 15.8716 38.8867 16.3801C38.4031 16.8885 37.7478 17.2222 36.921 17.3811C36.0941 17.5559 35.119 17.6433 33.9958 17.6433C33.1845 17.6433 32.3265 17.6115 31.4216 17.5479C30.5323 17.4844 29.5105 17.3572 28.356 17.1666L28.7304 14.5925C28.9644 14.6084 29.2999 14.6163 29.7367 14.6163H32.5917C33.4341 14.6163 34.0738 14.6004 34.5106 14.5687C34.9474 14.5369 35.2517 14.4813 35.4233 14.4018C35.5949 14.3065 35.6885 14.1794 35.7041 14.0205C35.7353 13.8139 35.6573 13.663 35.4701 13.5676C35.2985 13.4723 34.9396 13.3372 34.3936 13.1625L31.7726 12.2806C30.743 11.9469 30.0331 11.4544 29.6431 10.8029C29.2687 10.1355 29.1438 9.32519 29.2687 8.37183C29.3779 7.6727 29.6119 7.09274 29.9707 6.63195C30.3451 6.15527 30.9146 5.79776 31.679 5.55942C32.4435 5.32108 33.4653 5.20191 34.7446 5.20191Z" fill="#192122"/>
<path d="M46.1432 7.75215L46.0964 5.53559H42.75L41.1353 17.3811H45.3943L46.3772 10.1832C46.97 9.72242 47.4771 9.39669 47.8983 9.20602C48.3351 8.99946 48.733 8.88824 49.0918 8.87235C49.4506 8.84057 49.6846 8.91207 49.7938 9.08685C49.903 9.24575 49.9264 9.5397 49.864 9.96871L48.8344 17.3811H53.0934L54.3103 8.58634C54.4663 7.47409 54.2479 6.63195 53.6551 6.05994C53.0778 5.48792 52.3056 5.20191 51.3383 5.20191C50.4803 5.20191 49.591 5.43231 48.6706 5.8931C47.7657 6.338 46.9232 6.95768 46.1432 7.75215Z" fill="#192122"/>
<path d="M67.8684 7.53764L68.7811 0.69729H64.522L62.2286 17.3811H66.4877L67.0026 13.7345C67.0182 13.6074 67.026 13.4644 67.026 13.3055C67.26 13.226 67.5018 13.1466 67.7514 13.0671L68.5003 12.7811L70.5362 17.3811H74.9123L72.7593 12.7334C72.6345 12.4474 72.4785 12.1773 72.2913 11.9231C72.1041 11.653 71.8701 11.4067 71.5893 11.1842C72.4941 10.5646 73.2976 9.80187 73.9996 8.89618C74.7173 7.99049 75.2399 6.87029 75.5675 5.53559H71.1914C70.9574 6.53661 70.4426 7.47409 69.6469 8.348C68.8513 9.20602 67.9386 9.89721 66.9089 10.4216C67.143 9.94487 67.338 9.47614 67.494 9.01535C67.65 8.53867 67.7748 8.0461 67.8684 7.53764Z" fill="#192122"/>
</svg>
